<?xml version="1.0" encoding="utf-8"?>
<svg version="1.1" xmlns:xlink="http://www.w3.org/1999/xlink" width="50px" height="30px" xmlns="http://www.w3.org/2000/svg">
  <g transform="matrix(1 0 0 1 -440 -360 )">
    <path d="M 454.5 388.81400565943  L 440.68599434057 375  L 454.5 361.18599434057  L 454.5 368.6  L 475.5 368.6  L 475.5 361.18599434057  L 489.31400565943 375  L 475.5 388.81400565943  L 475.5 381.4  L 454.5 381.4  L 454.5 388.81400565943  Z " fill-rule="nonzero" fill="#f2f2f2" stroke="none" fill-opacity="0" />
    <path d="M 455 390  L 440 375  L 455 360  L 455 368.1  L 475 368.1  L 475 360  L 490 375  L 475 390  L 475 381.9  L 455 381.9  L 455 390  Z M 441.37198868114 375  L 454 387.62801131886  L 454 380.9  L 476 380.9  L 476 387.62801131886  L 488.62801131886 375  L 476 362.37198868114  L 476 369.1  L 454 369.1  L 454 362.37198868114  L 441.37198868114 375  Z " fill-rule="nonzero" fill="#0285be" stroke="none" />
  </g>
</svg>