<?xml version="1.0" encoding="utf-8"?>
<svg version="1.1" xmlns:xlink="http://www.w3.org/1999/xlink" width="30px" height="23px" xmlns="http://www.w3.org/2000/svg">
  <g transform="matrix(1 0 0 1 -840 -610 )">
    <path d="M 14.28955078125 9.8154296875  C 13.19091796875 10.9384765625  11.865234375 11.5  10.3125 11.5  C 8.759765625 11.5  7.43408203125 10.9384765625  6.33544921875 9.8154296875  C 5.23681640625 8.6923828125  4.6875 7.33723958333333  4.6875 5.75  C 4.6875 4.16276041666667  5.23681640625 2.8076171875  6.33544921875 1.6845703125  C 7.43408203125 0.5615234375  8.759765625 0  10.3125 0  C 11.865234375 0  13.19091796875 0.5615234375  14.28955078125 1.6845703125  C 15.38818359375 2.8076171875  15.9375 4.16276041666667  15.9375 5.75  C 15.9375 7.33723958333333  15.38818359375 8.6923828125  14.28955078125 9.8154296875  Z M 24.375 8.14583333333333  L 24.375 13.4166666666667  L 29.53125 13.4166666666667  C 29.658203125 13.4166666666667  29.76806640625 13.4640842013889  29.86083984375 13.5589192708333  C 29.95361328125 13.6537543402778  30 13.7660590277778  30 13.8958333333333  L 30 16.7708333333333  C 30 16.9006076388889  29.95361328125 17.0129123263889  29.86083984375 17.1077473958333  C 29.76806640625 17.2025824652778  29.658203125 17.25  29.53125 17.25  L 24.375 17.25  L 24.375 22.5208333333333  C 24.375 22.6506076388889  24.32861328125 22.7629123263889  24.23583984375 22.8577473958333  C 24.14306640625 22.9525824652778  24.033203125 23  23.90625 23  L 21.09375 23  C 20.966796875 23  20.85693359375 22.9525824652778  20.76416015625 22.8577473958333  C 20.67138671875 22.7629123263889  20.625 22.6506076388889  20.625 22.5208333333333  L 20.625 17.25  L 15.46875 17.25  C 15.341796875 17.25  15.23193359375 17.2025824652778  15.13916015625 17.1077473958333  C 15.04638671875 17.0129123263889  15 16.9006076388889  15 16.7708333333333  L 15 13.8958333333333  C 15 13.7660590277778  15.04638671875 13.6537543402778  15.13916015625 13.5589192708333  C 15.23193359375 13.4640842013889  15.341796875 13.4166666666667  15.46875 13.4166666666667  L 20.625 13.4166666666667  L 20.625 8.14583333333333  C 20.625 8.01605902777778  20.67138671875 7.90375434027778  20.76416015625 7.80891927083333  C 20.85693359375 7.71408420138889  20.966796875 7.66666666666667  21.09375 7.66666666666667  L 23.90625 7.66666666666667  C 24.033203125 7.66666666666667  24.14306640625 7.71408420138889  24.23583984375 7.80891927083333  C 24.32861328125 7.90375434027778  24.375 8.01605902777778  24.375 8.14583333333333  Z M 13.59375 13.8958333333333  L 13.59375 16.7708333333333  C 13.59375 17.2899305555556  13.779296875 17.7391493055556  14.150390625 18.1184895833333  C 14.521484375 18.4978298611111  14.9609375 18.6875  15.46875 18.6875  L 19.21875 18.6875  L 19.21875 22.2513020833333  C 18.5546875 22.7504340277778  17.7197265625 23  16.7138671875 23  L 3.9111328125 23  C 2.7294921875 23  1.7822265625 22.6555989583333  1.0693359375 21.966796875  C 0.3564453125 21.2779947916667  0 20.3296440972222  0 19.1217447916667  C 0 18.5926649305556  0.01708984375 18.0760633680556  0.05126953125 17.5719401041667  C 0.08544921875 17.0678168402778  0.15380859375 16.5237630208333  0.25634765625 15.9397786458333  C 0.35888671875 15.3557942708333  0.48828125 14.8142361111111  0.64453125 14.3151041666667  C 0.80078125 13.8159722222222  1.0107421875 13.3293185763889  1.2744140625 12.8551432291667  C 1.5380859375 12.3809678819444  1.8408203125 11.9766710069444  2.1826171875 11.6422526041667  C 2.5244140625 11.3078342013889  2.94189453125 11.0407986111111  3.43505859375 10.8411458333333  C 3.92822265625 10.6414930555556  4.47265625 10.5416666666667  5.068359375 10.5416666666667  C 5.25390625 10.5416666666667  5.4443359375 10.6265190972222  5.6396484375 10.7962239583333  C 6.4111328125 11.4051649305556  7.16552734375 11.8618706597222  7.90283203125 12.1663411458333  C 8.64013671875 12.4708116319444  9.443359375 12.623046875  10.3125 12.623046875  C 11.181640625 12.623046875  11.98486328125 12.4708116319444  12.72216796875 12.1663411458333  C 13.45947265625 11.8618706597222  14.2138671875 11.4051649305556  14.9853515625 10.7962239583333  C 15.1806640625 10.6265190972222  15.37109375 10.5416666666667  15.556640625 10.5416666666667  C 16.845703125 10.5416666666667  17.9052734375 11.0208333333333  18.7353515625 11.9791666666667  L 15.46875 11.9791666666667  C 14.9609375 11.9791666666667  14.521484375 12.1688368055556  14.150390625 12.5481770833333  C 13.779296875 12.9275173611111  13.59375 13.3767361111111  13.59375 13.8958333333333  Z " fill-rule="nonzero" fill="#0285be" stroke="none" transform="matrix(1 0 0 1 840 610 )" />
  </g>
</svg>