<?xml version="1.0" encoding="utf-8"?>
<svg version="1.1" xmlns:xlink="http://www.w3.org/1999/xlink" width="30px" height="28px" xmlns="http://www.w3.org/2000/svg">
  <g transform="matrix(1 0 0 1 -840 -351 )">
    <path d="M 8 10  C 8 11.4479166666667  8.421875 12.78125  9.265625 14  C 7.578125 14.0520833333333  6.19791666666667 14.71875  5.125 16  L 3.03125 16  C 2.17708333333333 16  1.45833333333333 15.7890625  0.875 15.3671875  C 0.291666666666667 14.9453125  0 14.328125  0 13.515625  C 0 9.83854166666666  0.645833333333333 8  1.9375 8  C 2 8  2.2265625 8.109375  2.6171875 8.328125  C 3.0078125 8.546875  3.515625 8.76822916666667  4.140625 8.9921875  C 4.765625 9.21614583333333  5.38541666666667 9.328125  6 9.328125  C 6.69791666666667 9.328125  7.390625 9.20833333333333  8.078125 8.96875  C 8.02604166666667 9.35416666666666  8 9.69791666666667  8 10  Z M 25.9453125 22.3359375  C 25.9817708333333 22.8619791666667  26 23.4010416666667  26 23.953125  C 26 25.203125  25.6197916666667 26.1901041666667  24.859375 26.9140625  C 24.0989583333333 27.6380208333333  23.0885416666667 28  21.828125 28  L 8.171875 28  C 6.91145833333333 28  5.90104166666667 27.6380208333333  5.140625 26.9140625  C 4.38020833333333 26.1901041666667  4 25.203125  4 23.953125  C 4 23.4010416666667  4.01822916666667 22.8619791666667  4.0546875 22.3359375  C 4.09114583333333 21.8098958333333  4.1640625 21.2421875  4.2734375 20.6328125  C 4.3828125 20.0234375  4.52083333333333 19.4583333333333  4.6875 18.9375  C 4.85416666666667 18.4166666666667  5.078125 17.9088541666667  5.359375 17.4140625  C 5.640625 16.9192708333333  5.96354166666667 16.4973958333333  6.328125 16.1484375  C 6.69270833333333 15.7994791666667  7.13802083333333 15.5208333333333  7.6640625 15.3125  C 8.19010416666667 15.1041666666667  8.77083333333333 15  9.40625 15  C 9.51041666666667 15  9.734375 15.1119791666667  10.078125 15.3359375  C 10.421875 15.5598958333333  10.8020833333333 15.8098958333333  11.21875 16.0859375  C 11.6354166666667 16.3619791666667  12.1927083333333 16.6119791666667  12.890625 16.8359375  C 13.5885416666667 17.0598958333333  14.2916666666667 17.171875  15 17.171875  C 15.7083333333333 17.171875  16.4114583333333 17.0598958333333  17.109375 16.8359375  C 17.8072916666667 16.6119791666667  18.3645833333333 16.3619791666667  18.78125 16.0859375  C 19.1979166666667 15.8098958333333  19.578125 15.5598958333333  19.921875 15.3359375  C 20.265625 15.1119791666667  20.4895833333333 15  20.59375 15  C 21.2291666666667 15  21.8098958333333 15.1041666666667  22.3359375 15.3125  C 22.8619791666667 15.5208333333333  23.3072916666667 15.7994791666667  23.671875 16.1484375  C 24.0364583333333 16.4973958333333  24.359375 16.9192708333333  24.640625 17.4140625  C 24.921875 17.9088541666667  25.1458333333333 18.4166666666667  25.3125 18.9375  C 25.4791666666667 19.4583333333333  25.6171875 20.0234375  25.7265625 20.6328125  C 25.8359375 21.2421875  25.9088541666667 21.8098958333333  25.9453125 22.3359375  Z M 8.828125 1.171875  C 9.609375 1.953125  10 2.89583333333333  10 4  C 10 5.10416666666667  9.609375 6.046875  8.828125 6.828125  C 8.046875 7.609375  7.10416666666667 8  6 8  C 4.89583333333333 8  3.953125 7.609375  3.171875 6.828125  C 2.390625 6.046875  2 5.10416666666667  2 4  C 2 2.89583333333333  2.390625 1.953125  3.171875 1.171875  C 3.953125 0.390625000000001  4.89583333333333 0  6 0  C 7.10416666666667 0  8.046875 0.390625000000001  8.828125 1.171875  Z M 19.2421875 5.7578125  C 20.4140625 6.9296875  21 8.34375  21 10  C 21 11.65625  20.4140625 13.0703125  19.2421875 14.2421875  C 18.0703125 15.4140625  16.65625 16  15 16  C 13.34375 16  11.9296875 15.4140625  10.7578125 14.2421875  C 9.5859375 13.0703125  9 11.65625  9 10  C 9 8.34375  9.5859375 6.9296875  10.7578125 5.7578125  C 11.9296875 4.5859375  13.34375 4  15 4  C 16.65625 4  18.0703125 4.5859375  19.2421875 5.7578125  Z M 28.0625 8  C 29.3541666666667 8  30 9.83854166666666  30 13.515625  C 30 14.328125  29.7083333333333 14.9453125  29.125 15.3671875  C 28.5416666666667 15.7890625  27.8229166666667 16  26.96875 16  L 24.875 16  C 23.8020833333333 14.71875  22.421875 14.0520833333333  20.734375 14  C 21.578125 12.78125  22 11.4479166666667  22 10  C 22 9.69791666666667  21.9739583333333 9.35416666666666  21.921875 8.96875  C 22.609375 9.20833333333333  23.3020833333333 9.328125  24 9.328125  C 24.6145833333333 9.328125  25.234375 9.21614583333333  25.859375 8.9921875  C 26.484375 8.76822916666667  26.9921875 8.546875  27.3828125 8.328125  C 27.7734375 8.109375  28 8  28.0625 8  Z M 26.828125 1.171875  C 27.609375 1.953125  28 2.89583333333333  28 4  C 28 5.10416666666667  27.609375 6.046875  26.828125 6.828125  C 26.046875 7.609375  25.1041666666667 8  24 8  C 22.8958333333333 8  21.953125 7.609375  21.171875 6.828125  C 20.390625 6.046875  20 5.10416666666667  20 4  C 20 2.89583333333333  20.390625 1.953125  21.171875 1.171875  C 21.953125 0.390625000000001  22.8958333333333 0  24 0  C 25.1041666666667 0  26.046875 0.390625000000001  26.828125 1.171875  Z " fill-rule="nonzero" fill="#0285be" stroke="none" transform="matrix(1 0 0 1 840 351 )" />
  </g>
</svg>